<?xml version="1.0" standalone="no"?>
<!DOCTYPE svg PUBLIC "-//W3C//DTD SVG 20010904//EN"
 "http://www.w3.org/TR/2001/REC-SVG-20010904/DTD/svg10.dtd">
<svg version="1.0" xmlns="http://www.w3.org/2000/svg"
 width="225.000000pt" height="225.000000pt" viewBox="0 0 225.000000 225.000000"
 preserveAspectRatio="xMidYMid meet">
<metadata>
Created by potrace 1.14, written by Peter Selinger 2001-2017
</metadata>
<g transform="translate(0.000000,225.000000) scale(0.100000,-0.100000)"
fill="#000000" stroke="none">
<path d="M790 1325 c0 -421 3 -535 13 -535 6 0 75 25 152 54 l140 54 2 359 3
358 -149 123 c-82 67 -152 122 -155 122 -3 0 -6 -241 -6 -535z"/>
<path d="M1298 1737 l-148 -122 3 -358 2 -359 140 -54 c77 -29 146 -54 153
-54 9 0 12 114 12 535 0 294 -3 535 -7 534 -5 0 -74 -55 -155 -122z"/>
<path d="M1333 690 c-53 -21 -58 -97 -10 -144 17 -18 40 -37 49 -42 21 -11 28
-55 11 -61 -9 -3 -13 6 -13 27 0 30 -1 31 -37 28 -36 -3 -38 -5 -36 -37 2 -50
33 -76 90 -75 58 1 83 28 83 86 0 32 -7 47 -32 72 -18 18 -40 37 -50 42 -20
11 -27 45 -10 51 7 3 12 -4 12 -16 0 -17 6 -21 35 -21 32 0 35 3 35 28 0 35
-9 48 -43 61 -33 13 -54 13 -84 1z"/>
<path d="M780 540 l0 -150 74 0 c54 0 79 4 90 16 21 21 22 117 1 134 -12 10
-12 15 1 36 20 30 10 78 -19 99 -14 9 -45 15 -84 15 l-63 0 0 -150z m100 65
c0 -19 -4 -35 -10 -35 -5 0 -10 16 -10 35 0 19 5 35 10 35 6 0 10 -16 10 -35z
m0 -120 c0 -19 -4 -37 -10 -40 -6 -4 -10 12 -10 40 0 28 4 44 10 40 6 -3 10
-21 10 -40z"/>
<path d="M1040 660 c0 -25 4 -30 25 -30 l25 0 0 -120 0 -120 40 0 40 0 0 120
c0 113 1 120 20 120 16 0 20 7 20 30 l0 30 -85 0 -85 0 0 -30z"/>
</g>
</svg>
